<svg xmlns="http://www.w3.org/2000/svg" viewBox="0 0 512 512" width="512" height="512">
  <rect width="512" height="512" fill="#0e0b14"/>

  <!-- Left eye -->
  <path d="M124.0 140.0 L228 156.8 C202.0 196.8 150.0 180.0 124.0 140.0 Z" fill="#e8650a"/>
  <ellipse cx="184" cy="161" rx="6" ry="7" fill="#0e0b14"/>
  <circle cx="187" cy="159" r="2.5" fill="#fff"/>

  <!-- Right eye -->
  <path d="M388.0 140.0 L284 156.8 C310.0 196.8 362.0 180.0 388.0 140.0 Z" fill="#e8650a"/>
  <ellipse cx="328" cy="161" rx="5" ry="6" fill="#0e0b14"/>
  <circle cx="325" cy="159" r="2" fill="#fff"/>

  <!-- Grin -->
  <path d="M56.0 220.0 C61.0 310.0 160 340.0 256 342.0 C352 340.0 451.0 310.0 456.0 220.0 C452.0 340.0 336 410.0 256 415.0 C176 410.0 60.0 340.0 56.0 220.0 Z" fill="#d79bc4" stroke="#0e0b14" stroke-width="2"/>

  <!-- Teeth -->
  <path d="M156 256 L156 402" stroke="#0e0b14" stroke-width="3.5" stroke-linecap="round" fill="none"/>
  <path d="M196 256 L196 402" stroke="#0e0b14" stroke-width="3.5" stroke-linecap="round" fill="none"/>
  <path d="M236 256 L236 402" stroke="#0e0b14" stroke-width="3.5" stroke-linecap="round" fill="none"/>
  <path d="M276 256 L276 402" stroke="#0e0b14" stroke-width="3.5" stroke-linecap="round" fill="none"/>
  <path d="M316 256 L316 402" stroke="#0e0b14" stroke-width="3.5" stroke-linecap="round" fill="none"/>
  <path d="M356 256 L356 402" stroke="#0e0b14" stroke-width="3.5" stroke-linecap="round" fill="none"/>
</svg>